# xmcd
#
# Track frame offsets: 
#        150
#        19944
#        38688
#        52805
#        68800
#        89339
#        102166
#        117654
#        135517
#
# Disc length: 2064 seconds
#
# Revision: 3
# Processed by: cddbd v1.5.2PL0 Copyright (c) Steve Scherf et al.
# Submitted via: ExactAudioCopyFreeDBPlugin 1.0
#
DISCID=71080e09
DTITLE=Danny George Wilson - The Famous Mad Mile
DYEAR=2005
DGENRE=Americana
TTITLE0=Somewhere Else Instead
TTITLE1=Old Soul
TTITLE2=The Famous Mad Mile
TTITLE3=Fishing Line
TTITLE4=The Bellringer
TTITLE5=Baby, I'm on Your Side
TTITLE6=Beauty in this Town
TTITLE7=Every Cloud
TTITLE8=Painted Pebble
EXTD=
EXTT0=
EXTT1=
EXTT2=
EXTT3=
EXTT4=
EXTT5=
EXTT6=
EXTT7=
EXTT8=
PLAYORDER=
